<?xml version="1.0" encoding="UTF-8"?>
<svg id="_レイヤー_1" data-name="レイヤー 1" xmlns="http://www.w3.org/2000/svg" viewBox="0 0 500 190.71">
  <defs>
    <style>
      .cls-1 {
        fill: #231815;
      }

      .cls-2 {
        fill: #f0ea30;
        stroke: #f0ea30;
        stroke-miterlimit: 10;
        stroke-width: 1.42px;
      }
    </style>
  </defs>
  <g>
    <path class="cls-1" d="M482.15,122.31c-4.22-.78-15.43-2.87-43.69-53.72-.56-.96-1.78-3.23-3.13-5.73l-.22-.4c-1.91-3.55-4.09-7.57-4.84-8.77-.49-.72-2-2.65-4-3.02-2.5-.46-2.65-.49-26.95,14.91-4.42,2.78-4.78,3.01-8.01,6.27-.9.92-4.2,3.93-8.2,3.19-3.17-.59-5.37-2.79-10.69-10.71-.05-.07-.09-.14-.13-.22-.36-.66-.82-1.47-.95-2.64-.11-.96.28-1.91,1.03-2.51.64-.51,1.47-.72,2.27-.57.14.03.28.06.41.11.94.33,1.83.64,2.19.7,6.84,1.27,14.91-.21,35.91-11.57,7.98-4.32,10.67-5.77,14.77-5.01,5.83,1.08,9.69,7.53,12.85,13.49.99,2.01,17.73,30.14,32.54,44.2.65.61,1.96,1.8,3.52,3.22,5.66,5.13,9.13,8.32,10.08,9.5.98.95,2.71,3.43,2.22,6.04s-3.24,3.96-6.99,3.26Z"/>
    <path class="cls-1" d="M478.99,68.98c-2.18-.41-3.35-2.2-6.24-8.15-1.64-3.36-2.88-5.01-6.32-8.91-.83-.95-.93-2.34-.24-3.4.63-.95,1.76-1.42,2.85-1.22.12.02.24.05.36.09,10.61,3.46,15.92,12.04,15.06,16.67-.37,1.97-2.78,5.41-5.48,4.91Z"/>
    <path class="cls-1" d="M495.13,59.05c-3.23-.6-4.59-3.87-6.17-7.66-.94-2.47-3.38-5.77-6.56-8.9-.95-.93-1.11-2.41-.39-3.52.63-.97,1.77-1.44,2.87-1.23.17.03.34.08.51.14,6.11,2.38,16.02,8.67,14.44,17.18-.49,2.64-2.55,4.39-4.7,3.99Z"/>
  </g>
  <g>
    <path class="cls-1" d="M297.86,162.97c-.7.09-1.43-.06-2.05-.48-1.23-.84-1.65-2.46-.97-3.78,11.21-21.94,10.4-36.16,9.89-40-.41-3.06-.7-4.63-3.11-9.81-.49-1.04-.32-2.27.41-3.14.48-.58,1.15-.93,1.87-1.03.38-.05.77-.03,1.15.07,4.12,1.1,11.21,3.6,12.46,8.09.12.43.14.87.06,1.31-.53,2.96-4.29,20.85-5.86,26.16-3.14,10.18-8.27,17.39-12.02,21.64-.49.55-1.14.88-1.82.98Z"/>
    <path class="cls-1" d="M348.92,151.22c-.11.01-.22.02-.33.03-4.44.25-13.06-6.76-13.66-11.21,0-.06-.01-.12-.02-.18-.07-.93.15-4.83.2-5.56.07-3.01-1.43-15.35-1.95-19.25-2.52-18.74-5.22-25-6.83-28.74l-.12-.24-.89-1.56c-.55-.97-.51-2.17.11-3.09.48-.71,1.23-1.17,2.06-1.29.25-.03.5-.04.75,0,5.15.63,13.89,2.56,14.68,8.38.12,1.05-.04,3.22-.61,8.68-.16,1.51-.29,2.78-.32,3.35-.06,4.47,1.93,23.81,2.54,28.38.69,5.14,2.84,4.85,3.65,4.75,4.96-.67,18.39-13.83,30.58-29.97l.8-1.06c.49-.66,1.22-1.06,1.98-1.17.69-.09,1.4.05,2.02.46,1.31.87,1.71,2.6.92,3.96-5.64,9.6-12.73,19.33-21.06,28.91-6.9,7.8-8.46,9.8-9.37,11.34-.03.06-.07.11-.1.17-2.31,3.4-3.31,4.22-4.04,4.61-.31.17-.65.28-1,.32Z"/>
  </g>
  <g>
    <path class="cls-1" d="M190.8,190.63c-2.82-.68-3.93-3.33-6.38-9.8-.15-.34-.56-1.04-1.4-2.42l-.61-1.02c-.6-1-.48-2.27.29-3.15.6-.69,1.51-1.01,2.38-.89.24.03.47.1.7.19l.73.31c1.78.77,3.07,1.32,3.59,1.39,3.18.43,15.56-3.76,30.76-11.54,10.88-5.56,27.65-15.18,45.7-29.4.59-.47,1.33-.65,2.03-.55.62.08,1.21.38,1.65.88.95,1.07.89,2.68-.11,3.69-11.01,10.95-31.65,27.87-67.43,46.29-.56.27-1.68.98-2.97,1.79-3.61,2.28-6.13,3.77-7.52,4.18-.37.11-.75.14-1.13.09-.09-.01-.18-.03-.27-.05Z"/>
    <path class="cls-1" d="M201.37,145.59c-2.33-.32-2.97-1.81-4.37-5.07-1.7-4.11-4.55-7.79-8.97-11.61-.86-.74-1.16-1.95-.74-3.01.41-1.06,1.45-1.74,2.59-1.71,1.52.05,3.24.2,4.96.43,5.8.79,14.02,7.43,13.03,14.63-.39,2.89-3.12,6.8-6.5,6.34Z"/>
    <path class="cls-1" d="M223.28,119.11c-.13-.02-.35-.06-.48-.1-.26-.07-.51-.19-.73-.33-.86-.56-1.69-1.63-5.21-7.23-1.73-2.73-4.12-5.09-7.11-7-1.01-.65-1.47-1.88-1.12-3.03s1.4-1.93,2.6-1.92c1.22.01,2.48.1,3.75.28,14.89,2.03,13.92,12.39,13.76,13.57-.41,2.97-2.78,5.73-4.99,5.79-.15,0-.29,0-.43-.02h-.04Z"/>
  </g>
  <g>
    <path class="cls-1" d="M44.96,159.04c-3.86-.31-4.81-1.55-12.21-11.23-7.06-9.05-18.14-17.93-31.2-24.97-1.32-.71-1.89-2.3-1.34-3.69.49-1.22,1.71-1.95,2.97-1.85.18.01.36.04.54.09,8.4,2.27,21.12,6.88,31.62,13.05,12.24,7.19,18.17,14.42,17.6,21.5-.44,5.6-5.13,7.32-7.98,7.1Z"/>
    <path class="cls-1" d="M33.99,102.48c-3.46-.28-4.7-1.38-14.36-9.98-3.05-2.73-5.97-4.72-14.26-8.65-1.3-.61-1.96-2.07-1.58-3.46.38-1.36,1.67-2.26,3.08-2.15.02,0,.04,0,.06,0,.34.03,34.22,3.58,33.03,18.55-.24,3.03-3.26,5.89-5.97,5.68Z"/>
    <path class="cls-1" d="M50.37,71.12c-.18-.01-.36-.05-.53-.09-1.73-.47-4.22-2.41-10.37-7.43l-.17-.14c-8.04-6.59-9.99-7.77-23.12-14.01-1.31-.62-1.97-2.1-1.57-3.49.39-1.35,1.68-2.23,3.07-2.12.04,0,.08,0,.12.01,18.91,2.27,38.74,9.28,37.72,22.16-.26,3.21-2.49,4.87-4.59,5.1-.18.02-.37.02-.55,0Z"/>
  </g>
  <g>
    <path class="cls-1" d="M130.38,168.45c-.8.29-1.71.23-2.5-.22-1.32-.77-1.84-2.43-1.18-3.81,4.42-9.34,6.88-18.15,7.73-27.71.67-7.71-.08-19.99-2.25-25.96-.63-1.73-2.73-1.85-4.02-1.38-3.01,1.09-28.61,16.02-30.68,17.36-.48.31-1.61,1.27-2.8,2.3-1.68,1.44-3.37,2.88-4.3,3.5-.2.13-.41.24-.63.32-.31.11-.64.17-.97.18-2.47.03-11.05-1.74-13.27-3.37-.52-.37-1.06-.81-1.57-1.29-.88-.82-1.18-2.1-.75-3.22.31-.81.96-1.43,1.75-1.71.3-.11.63-.17.97-.18,3.19-.05,4.65-.07,8.4-1.43,5.69-2.07,10.89-4.72,35.9-17.47l3.05-1.55c3.96-1.98,5.04-2.72,3.65-6.52-1.26-3.47-6.49-12.36-12.12-10.32l-2.13,1.18c-1.49.83-3.46,1.92-5.56,3.07-.13.07-.27.14-.41.19-1.26.46-2.71,0-3.47-1.15-.85-1.28-.57-3,.64-3.95,12.63-9.94,20.52-18.29,22.22-23.53.14-.39.31-1.37.45-2.22.1-.61.24-1.41.38-2.1.21-1.03.94-1.84,1.88-2.18.32-.12.66-.18,1.01-.18,2.74,0,11.27.04,12.4.12h.17c3.81.04,5.04.61,5.79,1.22.89.73,1.27,1.92.98,3.03-.5,1.89-2.34,3.36-9.39,7.51l-.89.52c-2.73,1.48-13.66,10.12-14.73,11.05-.59.73-.8,1.47-.59,2.06.26.73.34.92,4.21.98,5.67-.06,6.77,2.95,7.82,5.86,2.33,6.39,3.33,7.18,5.34,6.45.14-.05.29-.12.45-.19,41.2-19.55,100.84-48.1,124.56-59.46.09-.04.18-.08.27-.11.98-.36,2.09-.17,2.9.51.89.74,1.26,1.93.95,3.05l-1.82,6.58c-.25.89-.9,1.62-1.76,1.96-11.84,4.7-73.46,29.5-124.31,56.56-1,.53-1.23.85-.41,5.22.16.83.34,1.8.53,2.94,3.77,21.93.8,39.33-9.35,54.78-.39.58-.77,1.13-1.15,1.68-.36.51-.85.87-1.4,1.07Z"/>
    <path class="cls-2" d="M318.84,18.15c-17.65,0-20.99-2.61-20.99-16.41,0-.57-.46-1.03-1.03-1.03s-1.03.46-1.03,1.03c0,13.8-3.34,16.41-20.99,16.41-.57,0-1.03.46-1.03,1.03,0,.57.46,1.03,1.03,1.03,17.65,0,20.99,2.61,20.99,16.41,0,.57.46,1.03,1.03,1.03.57,0,1.03-.46,1.03-1.03,0-13.8,3.34-16.41,20.99-16.41.57,0,1.03-.46,1.03-1.03s-.46-1.03-1.03-1.03Z"/>
  </g>
</svg>